<!DOCTYPE svg PUBLIC "-//W3C//DTD SVG 1.1//EN" "http://www.w3.org/Graphics/SVG/1.1/DTD/svg11.dtd">

<!-- Uploaded to: SVG Repo, www.svgrepo.com, Transformed by: SVG Repo Mixer Tools -->
<svg version="1.1" id="Layer_1" xmlns="http://www.w3.org/2000/svg" xmlns:xlink="http://www.w3.org/1999/xlink" viewBox="0 0 507.2 507.2" xml:space="preserve" width="100px" height="100px" fill="#000000">

<g id="SVGRepo_bgCarrier" stroke-width="0"/>

<g id="SVGRepo_tracerCarrier" stroke-linecap="round" stroke-linejoin="round"/>

<g id="SVGRepo_iconCarrier"> <path style="fill:#61C2AB;" d="M501.6,193.8c0-17.6-14-31.6-31.6-31.6H33.2c-17.6,0-31.6,14-31.6,31.6v252.8 c0,17.6,14,31.6,31.6,31.6H470c17.6,0,31.6-14,31.6-31.6L501.6,193.8L501.6,193.8z"/> <path style="fill:#DF5C4E;" d="M367.2,305.8c5.2,0,10.4-0.8,15.2-2.8l16.4-10.8l0,0c-7.2-7.6-12-18.4-12-30c0-8.8,2.4-16.8,7.2-23.6 c1.6-2,3.2-4.4,4.8-6c-8-8.4-19.2-13.6-31.6-13.6c-24,0-43.6,19.6-43.6,43.6C324,286.2,343.2,305.8,367.2,305.8z"/> <path style="fill:#F0C960;" d="M398.8,291.8c8,8.4,19.2,13.6,31.6,13.6c24,0,43.6-19.6,43.6-43.6s-19.6-43.6-43.6-43.6 c-6,0-12,1.2-17.2,3.6l-14.4,10l0,0c7.2,7.6,12,18.4,12,30C410.8,273.8,406.4,284.2,398.8,291.8z"/> <path style="fill:#EF934A;" d="M387.2,262.2c0,11.6,4.4,22,12,30c7.2-7.6,12-18.4,12-30c0-11.6-4.4-22-12-30c-1.6,2-3.2,4-4.8,6 C389.6,245.4,387.2,253.4,387.2,262.2z"/> <path style="fill:#AEB1B4;" d="M157.6,253.8c0-13.2-10.8-23.6-23.6-23.6H69.6C56.4,230.2,46,241,46,253.8v32.4 c0,13.2,10.8,23.6,23.6,23.6H134c13.2,0,23.6-10.8,23.6-23.6V253.8z"/> <g> <rect x="45.6" y="390.2" style="fill:#F4EFEF;" width="88" height="28"/> <rect x="157.6" y="390.2" style="fill:#F4EFEF;" width="84" height="28"/> <rect x="265.6" y="390.2" style="fill:#F4EFEF;" width="88" height="28"/> <rect x="377.6" y="390.2" style="fill:#F4EFEF;" width="88" height="28"/> </g> <polygon style="fill:#DF5C4E;" points="253.6,27.8 170.4,134.2 197.6,134.2 197.6,230.2 305.6,230.2 305.6,134.2 336.4,134.2 "/> <path d="M367.6,310.2c-26,0-47.6-21.2-47.6-47.6s21.2-47.6,47.6-47.6c26,0,47.6,21.2,47.6,47.6c0,12-4.4,23.6-12.8,32.4 c-1.6,1.6-4,1.6-5.6,0s-1.6-4,0-5.6c6.8-7.2,10.8-16.8,10.8-27.2c0-21.6-17.6-39.6-39.6-39.6s-39.6,17.6-39.6,39.6 c0,21.6,17.6,39.6,39.6,39.6c4.8,0,9.6-0.8,14-2.4c2-0.8,4.4,0.4,5.2,2.4s-0.4,4.4-2.4,5.2C378.8,309,373.2,310.2,367.6,310.2z"/> <path d="M430.8,310.2c-26,0-47.6-21.2-47.6-47.6c0-9.2,2.8-18,7.6-26c1.6-2.4,3.2-4.8,5.2-6.8c1.6-1.6,4-1.6,5.6,0s1.6,4,0,5.6 s-3.2,3.6-4.4,5.6c-4,6.4-6.4,14-6.4,21.6c0,21.6,17.6,39.6,39.6,39.6c21.6,0,39.6-17.6,39.6-39.6c0-21.6-17.6-39.6-39.6-39.6 c-5.6,0-10.8,1.2-15.6,3.2c-2,0.8-4.4,0-5.2-2s0-4.4,2-5.2c6-2.4,12.4-4,18.8-4c26,0,47.6,21.2,47.6,47.6S456.8,310.2,430.8,310.2z"/> <path d="M132,312.2H67.6c-15.2,0-27.6-12.4-27.6-27.6v-32.4c0-15.2,12.4-27.6,27.6-27.6H132c15.2,0,27.6,12.4,27.6,27.6v32.4 C159.6,299.8,147.2,312.2,132,312.2z M67.2,232.2c-10.8,0-19.6,8.8-19.6,19.6v32.4c0,10.8,8.8,19.6,19.6,19.6h64.4 c10.8,0,19.6-8.8,19.6-19.6l0,0v-32.4c0-10.8-8.8-19.6-19.6-19.6H67.2z"/> <path d="M131.6,420.2h-88c-2.4,0-4-1.6-4-4v-28c0-2.4,1.6-4,4-4h88c2.4,0,4,1.6,4,4v28C135.6,418.6,134,420.2,131.6,420.2z M47.6,412.2h80v-20h-80V412.2z"/> <path d="M239.6,420.2h-84c-2.4,0-4-1.6-4-4v-28c0-2.4,1.6-4,4-4h84c2.4,0,4,1.6,4,4v28C243.6,418.6,242,420.2,239.6,420.2z M159.6,412.2h76v-20h-76V412.2z"/> <path d="M351.6,420.2h-88c-2.4,0-4-1.6-4-4v-28c0-2.4,1.6-4,4-4h88c2.4,0,4,1.6,4,4v28C355.6,418.6,354,420.2,351.6,420.2z M267.6,412.2h80v-20h-80V412.2z"/> <path d="M463.6,420.2h-88c-2.4,0-4-1.6-4-4v-28c0-2.4,1.6-4,4-4h88c2.4,0,4,1.6,4,4v28C467.6,418.6,466,420.2,463.6,420.2z M379.6,412.2h80v-20h-80V412.2z"/> <path d="M133.6,284.2h-84c-2.4,0-4-1.6-4-4s1.6-4,4-4h84c2.4,0,4,1.6,4,4S136,284.2,133.6,284.2z"/> <path d="M133.6,260.2h-84c-2.4,0-4-1.6-4-4c0-2.4,1.6-4,4-4h84c2.4,0,4,1.6,4,4C137.6,258.6,136,260.2,133.6,260.2z"/> <path d="M307.6,236.2h-108c-2.4,0-4-1.6-4-4v-92h-25.2c-1.6,0-2.8-0.8-3.6-2.4c-0.8-1.2-0.4-2.8,0.4-4.4L248.4,27 c0.8-0.8,2-1.6,3.2-1.6s2.4,0.4,3.2,1.6l86.8,106.4c0.8,1.2,1.2,2.8,0.4,4.4c-0.8,1.2-2,2.4-3.6,2.4h-26.8v92 C311.6,234.6,310,236.2,307.6,236.2z M203.6,228.2h100v-92c0-2.4,1.6-4,4-4H330l-78-96l-73.2,96H200c2.4,0,4,1.6,4,4v92H203.6z"/> <path d="M471.6,481.8h-436C16,481.8,0,465.8,0,446.2V191.4c0-19.6,16-35.6,35.6-35.6h164c2.4,0,4,1.6,4,4s-1.6,4-4,4h-164 C20.4,163.8,8,176.2,8,191.4v254.8c0,15.2,12.4,27.6,27.6,27.6h436c15.2,0,27.6-12.4,27.6-27.6V191.4c0-15.2-12.4-27.6-27.6-27.6 H310.4c-2.4,0-4-1.6-4-4s1.6-4,4-4h161.2c19.6,0,35.6,16,35.6,35.6v254.8C507.2,465.8,491.2,481.8,471.6,481.8z"/> </g>

</svg>